<svg xmlns="http://www.w3.org/2000/svg" viewBox="185 165 130 130">

<path fill="#46525B" opacity="1.000000" stroke="none" 
	d="
M271.261780,186.630249 
	C271.200500,188.940872 271.370453,191.012405 270.721710,192.784195 
	C269.065735,197.306824 270.073303,201.733170 272.753601,204.912003 
	C277.961884,211.089050 283.987640,216.586517 289.813385,222.222229 
	C290.622742,223.005203 292.296539,223.437775 293.438538,223.246552 
	C301.498993,221.896729 310.590576,225.495285 314.964874,233.708679 
	C318.325714,240.019150 318.674530,250.139496 312.737640,256.542358 
	C304.461151,265.468445 288.858582,266.514221 281.314026,254.116409 
	C278.190460,248.983536 274.045044,247.706161 269.424530,246.303818 
	C254.877457,241.888779 240.450287,243.138351 226.596588,248.832779 
	C223.171921,250.240433 220.649536,254.182220 218.078003,257.264191 
	C209.686066,267.321838 190.716400,264.422089 186.523010,250.635880 
	C182.245071,236.571671 189.716660,221.155563 207.962143,223.443039 
	C209.865036,223.681595 212.485107,223.110519 213.852859,221.887070 
	C221.168533,215.343262 228.170502,208.438583 232.710648,199.548035 
	C233.179626,198.629654 232.883377,197.099884 232.505264,196.004639 
	C229.624146,187.659363 233.802399,174.742584 241.482819,170.823746 
	C247.243286,167.884537 253.650726,168.254318 259.509888,171.059647 
	C265.842773,174.091812 270.546692,178.674286 271.261780,186.630249 
M254.915085,208.443893 
	C250.866043,208.082916 246.700394,208.193542 242.800583,207.229095 
	C238.856003,206.253632 237.142792,208.041931 237.190552,211.162994 
	C237.244400,214.680984 238.143906,218.282852 239.239410,221.665649 
	C240.928040,226.879868 244.409622,231.176498 249.854706,232.071182 
	C254.896149,232.899521 258.927887,229.857147 261.319305,225.276199 
	C262.578247,222.864609 263.758087,220.329926 264.435516,217.711624 
	C266.655029,209.133301 264.029663,206.465530 254.915085,208.443893 
M254.741623,176.152405 
	C253.747650,176.066010 252.754456,175.915054 251.759598,175.903397 
	C243.585342,175.807556 238.031891,181.184311 238.110031,189.089569 
	C238.179428,196.110657 244.249374,201.854370 251.484863,201.745529 
	C259.070190,201.631439 264.207306,195.985443 264.128326,188.076370 
	C264.067963,182.034821 260.504578,178.727966 254.741623,176.152405 
M284.946716,240.031326 
	C282.519897,251.148132 293.886108,257.939850 301.291748,255.154099 
	C307.045380,252.989746 310.719940,247.714890 310.279999,241.678436 
	C309.850769,235.788910 305.488251,231.026596 299.684021,230.111389 
	C292.770447,229.021255 288.156647,231.896332 284.946716,240.031326 
M200.137192,254.597153 
	C205.403290,256.889038 209.963852,255.376389 213.858841,251.681046 
	C217.216095,248.495880 218.472748,244.419373 217.385971,239.841217 
	C216.004486,234.021667 211.065674,230.138367 205.117920,230.026810 
	C199.022476,229.912460 194.244125,233.448837 192.512863,239.355621 
	C190.783676,245.255325 193.137283,250.318665 200.137192,254.597153 
M225.941055,220.474030 
	C224.025589,222.300674 221.895996,223.952774 220.236786,225.988297 
	C216.072571,231.097031 223.565094,233.363373 223.372665,237.678986 
	C223.332565,238.577957 225.318115,240.492798 226.075745,240.352280 
	C231.168900,239.407623 236.182587,238.034546 240.786331,236.906998 
	C236.709686,230.264832 232.916138,224.083908 229.002945,217.708038 
	C228.352539,218.279373 227.386734,219.127731 225.941055,220.474030 
M281.173309,232.636261 
	C281.703156,230.749069 283.291473,228.016205 282.577576,227.122711 
	C279.661133,223.472427 276.041199,220.384201 273.105164,217.505447 
	C269.122101,224.265503 265.414368,230.558304 261.667755,236.917038 
	C266.700226,238.162216 272.128387,239.505310 277.719055,240.888611 
	C278.846344,238.158249 279.842163,235.746338 281.173309,232.636261 
z"/>

<path fill="#7FA3AD" opacity="1.000000" stroke="none" 
	d="
M255.131500,176.272217 
	C260.504578,178.727966 264.067963,182.034821 264.128326,188.076370 
	C264.207306,195.985443 259.070190,201.631439 251.484863,201.745529 
	C244.249374,201.854370 238.179428,196.110657 238.110031,189.089569 
	C238.031891,181.184311 243.585342,175.807556 251.759598,175.903397 
	C252.754456,175.915054 253.747650,176.066010 255.131500,176.272217 
z"/>
<path fill="#84A1AB" opacity="1.000000" stroke="none" 
	d="
M285.017944,239.618744 
	C288.156647,231.896332 292.770447,229.021255 299.684021,230.111389 
	C305.488251,231.026596 309.850769,235.788910 310.279999,241.678436 
	C310.719940,247.714890 307.045380,252.989746 301.291748,255.154099 
	C293.886108,257.939850 282.519897,251.148132 285.017944,239.618744 
z"/>
<path fill="#6E8794" opacity="1.000000" stroke="none" 
	d="
M199.793304,254.437714 
	C193.137283,250.318665 190.783676,245.255325 192.512863,239.355621 
	C194.244125,233.448837 199.022476,229.912460 205.117920,230.026810 
	C211.065674,230.138367 216.004486,234.021667 217.385971,239.841217 
	C218.472748,244.419373 217.216095,248.495880 213.858841,251.681046 
	C209.963852,255.376389 205.403290,256.889038 199.793304,254.437714 
z"/>
<path fill="#7996A2" opacity="1.000000" stroke="none" 
	d="
M226.181000,220.225067 
	C227.386734,219.127731 228.352539,218.279373 229.002945,217.708038 
	C232.916138,224.083908 236.709686,230.264832 240.786331,236.906998 
	C236.182587,238.034546 231.168900,239.407623 226.075745,240.352280 
	C225.318115,240.492798 223.332565,238.577957 223.372665,237.678986 
	C223.565094,233.363373 216.072571,231.097031 220.236786,225.988297 
	C221.895996,223.952774 224.025589,222.300674 226.181000,220.225067 
z"/>
<path fill="#8CACB1" opacity="1.000000" stroke="none" 
	d="
M281.005646,232.985336 
	C279.842163,235.746338 278.846344,238.158249 277.719055,240.888611 
	C272.128387,239.505310 266.700226,238.162216 261.667755,236.917038 
	C265.414368,230.558304 269.122101,224.265503 273.105164,217.505447 
	C276.041199,220.384201 279.661133,223.472427 282.577576,227.122711 
	C283.291473,228.016205 281.703156,230.749069 281.005646,232.985336 
z"/>
</svg>
